<?xml version="1.0" encoding="UTF-8" standalone="no"?>
<!DOCTYPE svg PUBLIC "-//W3C//DTD SVG 1.1//EN"
 "http://www.w3.org/Graphics/SVG/1.1/DTD/svg11.dtd">
<!-- Generated by graphviz version 2.42.4 (0)
 -->
<!-- Title: G Pages: 1 -->
<svg width="557pt" height="1730pt"
 viewBox="0.00 0.00 557.40 1730.40" xmlns="http://www.w3.org/2000/svg" xmlns:xlink="http://www.w3.org/1999/xlink">
<g id="graph0" class="graph" transform="scale(1 1) rotate(0) translate(25.2 1705.2)">
<title>G</title>
<polygon fill="white" stroke="transparent" points="-25.2,25.2 -25.2,-1705.2 532.2,-1705.2 532.2,25.2 -25.2,25.2"/>
<!-- A -->
<g id="node1" class="node">
<title>A</title>
<path fill="#f8fafc" stroke="#64748b" stroke-width="1.2" d="M153,-1680C153,-1680 71,-1680 71,-1680 65,-1680 59,-1674 59,-1668 59,-1668 59,-1648 59,-1648 59,-1642 65,-1636 71,-1636 71,-1636 153,-1636 153,-1636 159,-1636 165,-1642 165,-1648 165,-1648 165,-1668 165,-1668 165,-1674 159,-1680 153,-1680"/>
<text text-anchor="middle" x="112" y="-1661.8" font-family="Noto Sans CJK SC" font-size="14.00">销售发送</text>
<text text-anchor="middle" x="112" y="-1646.8" font-family="Noto Sans CJK SC" font-size="14.00">订单需求邮件</text>
</g>
<!-- B -->
<g id="node2" class="node">
<title>B</title>
<path fill="#f8fafc" stroke="#64748b" stroke-width="1.2" d="M146,-1595C146,-1595 78,-1595 78,-1595 72,-1595 66,-1589 66,-1583 66,-1583 66,-1563 66,-1563 66,-1557 72,-1551 78,-1551 78,-1551 146,-1551 146,-1551 152,-1551 158,-1557 158,-1563 158,-1563 158,-1583 158,-1583 158,-1589 152,-1595 146,-1595"/>
<text text-anchor="middle" x="112" y="-1576.8" font-family="Noto Sans CJK SC" font-size="14.00">智能体监听</text>
<text text-anchor="middle" x="112" y="-1561.8" font-family="Noto Sans CJK SC" font-size="14.00">商务邮箱</text>
</g>
<!-- A&#45;&gt;B -->
<g id="edge1" class="edge">
<title>A&#45;&gt;B</title>
<path fill="none" stroke="#64748b" stroke-width="1.1" d="M112,-1635.63C112,-1625.77 112,-1613.92 112,-1603.25"/>
<polygon fill="#64748b" stroke="#64748b" stroke-width="1.1" points="114.8,-1603.01 112,-1595.01 109.2,-1603.01 114.8,-1603.01"/>
</g>
<!-- C -->
<g id="node3" class="node">
<title>C</title>
<polygon fill="#fff7ed" stroke="#f59e0b" stroke-width="1.2" points="112,-1510 0,-1466 112,-1422 224,-1466 112,-1510"/>
<text text-anchor="middle" x="112" y="-1469.8" font-family="Noto Sans CJK SC" font-size="14.00">是否为</text>
<text text-anchor="middle" x="112" y="-1454.8" font-family="Noto Sans CJK SC" font-size="14.00">生产订单需求</text>
</g>
<!-- B&#45;&gt;C -->
<g id="edge2" class="edge">
<title>B&#45;&gt;C</title>
<path fill="none" stroke="#64748b" stroke-width="1.1" d="M112,-1550.75C112,-1541.4 112,-1529.96 112,-1518.58"/>
<polygon fill="#64748b" stroke="#64748b" stroke-width="1.1" points="114.8,-1518.34 112,-1510.34 109.2,-1518.34 114.8,-1518.34"/>
</g>
<!-- C1 -->
<g id="node4" class="node">
<title>C1</title>
<path fill="#f1f5f9" stroke="#64748b" stroke-width="1.2" d="M146.5,-1369C146.5,-1369 35.5,-1369 35.5,-1369 29.5,-1369 23.5,-1363 23.5,-1357 23.5,-1357 23.5,-1337 23.5,-1337 23.5,-1331 29.5,-1325 35.5,-1325 35.5,-1325 146.5,-1325 146.5,-1325 152.5,-1325 158.5,-1331 158.5,-1337 158.5,-1337 158.5,-1357 158.5,-1357 158.5,-1363 152.5,-1369 146.5,-1369"/>
<text text-anchor="middle" x="91" y="-1350.8" font-family="Noto Sans CJK SC" font-size="14.00">归档为非目标邮件</text>
<text text-anchor="middle" x="91" y="-1335.8" font-family="Noto Sans CJK SC" font-size="14.00">或转人工</text>
</g>
<!-- C&#45;&gt;C1 -->
<g id="edge3" class="edge">
<title>C&#45;&gt;C1</title>
<path fill="none" stroke="#64748b" stroke-width="1.1" d="M104.77,-1424.74C101.98,-1409.15 98.84,-1391.65 96.26,-1377.3"/>
<polygon fill="#64748b" stroke="#64748b" stroke-width="1.1" points="98.98,-1376.64 94.82,-1369.26 93.47,-1377.63 98.98,-1376.64"/>
<text text-anchor="middle" x="107.5" y="-1392.4" font-family="Noto Sans CJK SC" font-size="12.00">否</text>
</g>
<!-- D -->
<g id="node5" class="node">
<title>D</title>
<path fill="#f8fafc" stroke="#64748b" stroke-width="1.2" d="M278,-1369C278,-1369 196,-1369 196,-1369 190,-1369 184,-1363 184,-1357 184,-1357 184,-1337 184,-1337 184,-1331 190,-1325 196,-1325 196,-1325 278,-1325 278,-1325 284,-1325 290,-1331 290,-1337 290,-1337 290,-1357 290,-1357 290,-1363 284,-1369 278,-1369"/>
<text text-anchor="middle" x="237" y="-1350.8" font-family="Noto Sans CJK SC" font-size="14.00">提取订单字段</text>
<text text-anchor="middle" x="237" y="-1335.8" font-family="Noto Sans CJK SC" font-size="14.00">和附件信息</text>
</g>
<!-- C&#45;&gt;D -->
<g id="edge4" class="edge">
<title>C&#45;&gt;D</title>
<path fill="none" stroke="#64748b" stroke-width="1.1" d="M144.52,-1434.57C164.27,-1416.07 189.27,-1392.68 208.29,-1374.87"/>
<polygon fill="#64748b" stroke="#64748b" stroke-width="1.1" points="210.57,-1376.57 214.5,-1369.06 206.74,-1372.48 210.57,-1376.57"/>
<text text-anchor="middle" x="199.5" y="-1392.4" font-family="Noto Sans CJK SC" font-size="12.00">是</text>
</g>
<!-- E -->
<g id="node6" class="node">
<title>E</title>
<path fill="#f8fafc" stroke="#64748b" stroke-width="1.2" d="M264,-1284C264,-1284 210,-1284 210,-1284 204,-1284 198,-1278 198,-1272 198,-1272 198,-1252 198,-1252 198,-1246 204,-1240 210,-1240 210,-1240 264,-1240 264,-1240 270,-1240 276,-1246 276,-1252 276,-1252 276,-1272 276,-1272 276,-1278 270,-1284 264,-1284"/>
<text text-anchor="middle" x="237" y="-1265.8" font-family="Noto Sans CJK SC" font-size="14.00">执行商务</text>
<text text-anchor="middle" x="237" y="-1250.8" font-family="Noto Sans CJK SC" font-size="14.00">初审规则</text>
</g>
<!-- D&#45;&gt;E -->
<g id="edge5" class="edge">
<title>D&#45;&gt;E</title>
<path fill="none" stroke="#64748b" stroke-width="1.1" d="M237,-1324.63C237,-1314.77 237,-1302.92 237,-1292.25"/>
<polygon fill="#64748b" stroke="#64748b" stroke-width="1.1" points="239.8,-1292.01 237,-1284.01 234.2,-1292.01 239.8,-1292.01"/>
</g>
<!-- F -->
<g id="node7" class="node">
<title>F</title>
<polygon fill="#fff7ed" stroke="#f59e0b" stroke-width="1.2" points="237,-1199 125,-1170 237,-1141 349,-1170 237,-1199"/>
<text text-anchor="middle" x="237" y="-1166.3" font-family="Noto Sans CJK SC" font-size="14.00">是否通过初审</text>
</g>
<!-- E&#45;&gt;F -->
<g id="edge6" class="edge">
<title>E&#45;&gt;F</title>
<path fill="none" stroke="#64748b" stroke-width="1.1" d="M237,-1239.67C237,-1230.06 237,-1218.44 237,-1207.51"/>
<polygon fill="#64748b" stroke="#64748b" stroke-width="1.1" points="239.8,-1207.33 237,-1199.33 234.2,-1207.33 239.8,-1207.33"/>
</g>
<!-- F1 -->
<g id="node8" class="node">
<title>F1</title>
<path fill="#fef2f2" stroke="#ef4444" stroke-width="1.2" d="M278.5,-1088C278.5,-1088 153.5,-1088 153.5,-1088 147.5,-1088 141.5,-1082 141.5,-1076 141.5,-1076 141.5,-1056 141.5,-1056 141.5,-1050 147.5,-1044 153.5,-1044 153.5,-1044 278.5,-1044 278.5,-1044 284.5,-1044 290.5,-1050 290.5,-1056 290.5,-1056 290.5,-1076 290.5,-1076 290.5,-1082 284.5,-1088 278.5,-1088"/>
<text text-anchor="middle" x="216" y="-1069.8" font-family="Noto Sans CJK SC" font-size="14.00">生成补充信息请求</text>
<text text-anchor="middle" x="216" y="-1054.8" font-family="Noto Sans CJK SC" font-size="14.00">并发送销售或转人工</text>
</g>
<!-- F&#45;&gt;F1 -->
<g id="edge7" class="edge">
<title>F&#45;&gt;F1</title>
<path fill="none" stroke="#64748b" stroke-width="1.1" d="M231.48,-1142.2C228.58,-1128.09 225.01,-1110.76 222.03,-1096.29"/>
<polygon fill="#64748b" stroke="#64748b" stroke-width="1.1" points="224.71,-1095.42 220.36,-1088.15 219.23,-1096.55 224.71,-1095.42"/>
<text text-anchor="middle" x="233.5" y="-1111.4" font-family="Noto Sans CJK SC" font-size="12.00">否</text>
</g>
<!-- G -->
<g id="node9" class="node">
<title>G</title>
<path fill="#f8fafc" stroke="#64748b" stroke-width="1.2" d="M396,-1088C396,-1088 328,-1088 328,-1088 322,-1088 316,-1082 316,-1076 316,-1076 316,-1056 316,-1056 316,-1050 322,-1044 328,-1044 328,-1044 396,-1044 396,-1044 402,-1044 408,-1050 408,-1056 408,-1056 408,-1076 408,-1076 408,-1082 402,-1088 396,-1088"/>
<text text-anchor="middle" x="362" y="-1069.8" font-family="Noto Sans CJK SC" font-size="14.00">生成生产</text>
<text text-anchor="middle" x="362" y="-1054.8" font-family="Noto Sans CJK SC" font-size="14.00">任务单邮件</text>
</g>
<!-- F&#45;&gt;G -->
<g id="edge8" class="edge">
<title>F&#45;&gt;G</title>
<path fill="none" stroke="#64748b" stroke-width="1.1" d="M263.2,-1147.62C282.67,-1131.74 309.32,-1109.99 330.03,-1093.08"/>
<polygon fill="#64748b" stroke="#64748b" stroke-width="1.1" points="331.83,-1095.23 336.26,-1088 328.29,-1090.89 331.83,-1095.23"/>
<text text-anchor="middle" x="317.5" y="-1111.4" font-family="Noto Sans CJK SC" font-size="12.00">是</text>
</g>
<!-- H -->
<g id="node10" class="node">
<title>H</title>
<polygon fill="#fff7ed" stroke="#f59e0b" stroke-width="1.2" points="362,-1003 278,-974 362,-945 446,-974 362,-1003"/>
<text text-anchor="middle" x="362" y="-970.3" font-family="Noto Sans CJK SC" font-size="14.00">发送策略</text>
</g>
<!-- G&#45;&gt;H -->
<g id="edge9" class="edge">
<title>G&#45;&gt;H</title>
<path fill="none" stroke="#64748b" stroke-width="1.1" d="M362,-1043.67C362,-1034.06 362,-1022.44 362,-1011.51"/>
<polygon fill="#64748b" stroke="#64748b" stroke-width="1.1" points="364.8,-1011.33 362,-1003.33 359.2,-1011.33 364.8,-1011.33"/>
</g>
<!-- H1 -->
<g id="node11" class="node">
<title>H1</title>
<path fill="#f8fafc" stroke="#64748b" stroke-width="1.2" d="M495,-892C495,-892 427,-892 427,-892 421,-892 415,-886 415,-880 415,-880 415,-860 415,-860 415,-854 421,-848 427,-848 427,-848 495,-848 495,-848 501,-848 507,-854 507,-860 507,-860 507,-880 507,-880 507,-886 501,-892 495,-892"/>
<text text-anchor="middle" x="461" y="-873.8" font-family="Noto Sans CJK SC" font-size="14.00">商务负责人</text>
<text text-anchor="middle" x="461" y="-858.8" font-family="Noto Sans CJK SC" font-size="14.00">确认后发送</text>
</g>
<!-- H&#45;&gt;H1 -->
<g id="edge10" class="edge">
<title>H&#45;&gt;H1</title>
<path fill="none" stroke="#64748b" stroke-width="1.1" d="M382.51,-951.87C397.65,-936.27 418.36,-914.93 434.71,-898.09"/>
<polygon fill="#64748b" stroke="#64748b" stroke-width="1.1" points="436.95,-899.8 440.51,-892.11 432.93,-895.9 436.95,-899.8"/>
<text text-anchor="middle" x="445.5" y="-915.4" font-family="Noto Sans CJK SC" font-size="12.00">人工确认</text>
</g>
<!-- I -->
<g id="node12" class="node">
<title>I</title>
<path fill="#ecfdf5" stroke="#10b981" stroke-width="1.2" d="M383,-807C383,-807 329,-807 329,-807 323,-807 317,-801 317,-795 317,-795 317,-775 317,-775 317,-769 323,-763 329,-763 329,-763 383,-763 383,-763 389,-763 395,-769 395,-775 395,-775 395,-795 395,-795 395,-801 389,-807 383,-807"/>
<text text-anchor="middle" x="356" y="-788.8" font-family="Noto Sans CJK SC" font-size="14.00">发送给</text>
<text text-anchor="middle" x="356" y="-773.8" font-family="Noto Sans CJK SC" font-size="14.00">生产部门</text>
</g>
<!-- H&#45;&gt;I -->
<g id="edge11" class="edge">
<title>H&#45;&gt;I</title>
<path fill="none" stroke="#64748b" stroke-width="1.1" d="M359,-946.03C356.39,-922.47 353,-892 353,-892 353,-892 353,-848 353,-848 353,-848 353.8,-831.52 354.57,-815.55"/>
<polygon fill="#64748b" stroke="#64748b" stroke-width="1.1" points="357.38,-815.46 354.97,-807.34 351.78,-815.19 357.38,-815.46"/>
<text text-anchor="middle" x="377.5" y="-866.9" font-family="Noto Sans CJK SC" font-size="12.00">自动发送</text>
</g>
<!-- H1&#45;&gt;I -->
<g id="edge12" class="edge">
<title>H1&#45;&gt;I</title>
<path fill="none" stroke="#64748b" stroke-width="1.1" d="M434.23,-847.84C420.53,-837.01 403.73,-823.73 389.21,-812.25"/>
<polygon fill="#64748b" stroke="#64748b" stroke-width="1.1" points="390.73,-809.88 382.72,-807.12 387.26,-814.28 390.73,-809.88"/>
</g>
<!-- J -->
<g id="node13" class="node">
<title>J</title>
<path fill="#f8fafc" stroke="#64748b" stroke-width="1.2" d="M311,-722C311,-722 257,-722 257,-722 251,-722 245,-716 245,-710 245,-710 245,-690 245,-690 245,-684 251,-678 257,-678 257,-678 311,-678 311,-678 317,-678 323,-684 323,-690 323,-690 323,-710 323,-710 323,-716 317,-722 311,-722"/>
<text text-anchor="middle" x="284" y="-703.8" font-family="Noto Sans CJK SC" font-size="14.00">跟踪生产</text>
<text text-anchor="middle" x="284" y="-688.8" font-family="Noto Sans CJK SC" font-size="14.00">部门回复</text>
</g>
<!-- I&#45;&gt;J -->
<g id="edge13" class="edge">
<title>I&#45;&gt;J</title>
<path fill="none" stroke="#64748b" stroke-width="1.1" d="M337.46,-762.63C328.4,-752.19 317.4,-739.5 307.74,-728.37"/>
<polygon fill="#64748b" stroke="#64748b" stroke-width="1.1" points="309.59,-726.22 302.23,-722.01 305.36,-729.89 309.59,-726.22"/>
</g>
<!-- K -->
<g id="node14" class="node">
<title>K</title>
<polygon fill="#fff7ed" stroke="#f59e0b" stroke-width="1.2" points="183,-637 99,-593 183,-549 267,-593 183,-637"/>
<text text-anchor="middle" x="183" y="-596.8" font-family="Noto Sans CJK SC" font-size="14.00">生产部门</text>
<text text-anchor="middle" x="183" y="-581.8" font-family="Noto Sans CJK SC" font-size="14.00">反馈类型</text>
</g>
<!-- J&#45;&gt;K -->
<g id="edge14" class="edge">
<title>J&#45;&gt;K</title>
<path fill="none" stroke="#64748b" stroke-width="1.1" d="M263.56,-677.75C250.01,-663.66 231.91,-644.85 216.31,-628.63"/>
<polygon fill="#64748b" stroke="#64748b" stroke-width="1.1" points="218.25,-626.6 210.68,-622.78 214.21,-630.49 218.25,-626.6"/>
</g>
<!-- L -->
<g id="node15" class="node">
<title>L</title>
<path fill="#ecfdf5" stroke="#10b981" stroke-width="1.2" d="M120,-432C120,-432 24,-432 24,-432 18,-432 12,-426 12,-420 12,-420 12,-400 12,-400 12,-394 18,-388 24,-388 24,-388 120,-388 120,-388 126,-388 132,-394 132,-400 132,-400 132,-420 132,-420 132,-426 126,-432 120,-432"/>
<text text-anchor="middle" x="72" y="-413.8" font-family="Noto Sans CJK SC" font-size="14.00">任务关闭并记录</text>
<text text-anchor="middle" x="72" y="-398.8" font-family="Noto Sans CJK SC" font-size="14.00">排产确认</text>
</g>
<!-- K&#45;&gt;L -->
<g id="edge15" class="edge">
<title>K&#45;&gt;L</title>
<path fill="none" stroke="#64748b" stroke-width="1.1" d="M145.39,-568.54C116.68,-550.63 82,-529 82,-529 82,-529 77.43,-475.04 74.47,-440.1"/>
<polygon fill="#64748b" stroke="#64748b" stroke-width="1.1" points="77.25,-439.83 73.79,-432.1 71.67,-440.3 77.25,-439.83"/>
<text text-anchor="middle" x="106.5" y="-519.4" font-family="Noto Sans CJK SC" font-size="12.00">确认排产</text>
</g>
<!-- M -->
<g id="node16" class="node">
<title>M</title>
<path fill="#f8fafc" stroke="#64748b" stroke-width="1.2" d="M316,-496C316,-496 248,-496 248,-496 242,-496 236,-490 236,-484 236,-484 236,-464 236,-464 236,-458 242,-452 248,-452 248,-452 316,-452 316,-452 322,-452 328,-458 328,-464 328,-464 328,-484 328,-484 328,-490 322,-496 316,-496"/>
<text text-anchor="middle" x="282" y="-477.8" font-family="Noto Sans CJK SC" font-size="14.00">整理疑问并</text>
<text text-anchor="middle" x="282" y="-462.8" font-family="Noto Sans CJK SC" font-size="14.00">转发销售</text>
</g>
<!-- K&#45;&gt;M -->
<g id="edge16" class="edge">
<title>K&#45;&gt;M</title>
<path fill="none" stroke="#64748b" stroke-width="1.1" d="M208.24,-562.17C223.75,-543.84 243.48,-520.52 258.63,-502.61"/>
<polygon fill="#64748b" stroke="#64748b" stroke-width="1.1" points="260.96,-504.2 263.99,-496.28 256.69,-500.58 260.96,-504.2"/>
<text text-anchor="middle" x="278.5" y="-519.4" font-family="Noto Sans CJK SC" font-size="12.00">疑问或驳回</text>
</g>
<!-- N -->
<g id="node17" class="node">
<title>N</title>
<path fill="#fefce8" stroke="#ca8a04" stroke-width="1.2" d="M178,-304C178,-304 110,-304 110,-304 104,-304 98,-298 98,-292 98,-292 98,-272 98,-272 98,-266 104,-260 110,-260 110,-260 178,-260 178,-260 184,-260 190,-266 190,-272 190,-272 190,-292 190,-292 190,-298 184,-304 178,-304"/>
<text text-anchor="middle" x="144" y="-285.8" font-family="Noto Sans CJK SC" font-size="14.00">自动催办或</text>
<text text-anchor="middle" x="144" y="-270.8" font-family="Noto Sans CJK SC" font-size="14.00">升级提醒</text>
</g>
<!-- K&#45;&gt;N -->
<g id="edge17" class="edge">
<title>K&#45;&gt;N</title>
<path fill="none" stroke="#64748b" stroke-width="1.1" d="M174.52,-553.23C168.69,-526.59 162,-496 162,-496 162,-496 151.41,-370.7 146.48,-312.31"/>
<polygon fill="#64748b" stroke="#64748b" stroke-width="1.1" points="149.26,-311.94 145.79,-304.2 143.68,-312.41 149.26,-311.94"/>
<text text-anchor="middle" x="192.5" y="-470.9" font-family="Noto Sans CJK SC" font-size="12.00">无回复超时</text>
</g>
<!-- R -->
<g id="node22" class="node">
<title>R</title>
<path fill="#eef2ff" stroke="#6366f1" stroke-width="1.2" d="M156,-44C156,-44 102,-44 102,-44 96,-44 90,-38 90,-32 90,-32 90,-12 90,-12 90,-6 96,0 102,0 102,0 156,0 156,0 162,0 168,-6 168,-12 168,-12 168,-32 168,-32 168,-38 162,-44 156,-44"/>
<text text-anchor="middle" x="129" y="-25.8" font-family="Noto Sans CJK SC" font-size="14.00">进入</text>
<text text-anchor="middle" x="129" y="-10.8" font-family="Noto Sans CJK SC" font-size="14.00">周报统计</text>
</g>
<!-- L&#45;&gt;R -->
<g id="edge23" class="edge">
<title>L&#45;&gt;R</title>
<path fill="none" stroke="#64748b" stroke-width="1.1" d="M72.33,-387.91C72.9,-352.04 74,-283 74,-283 74,-283 74,-283 74,-106 74,-106 94.33,-75.32 110.27,-51.27"/>
<polygon fill="#64748b" stroke="#64748b" stroke-width="1.1" points="112.75,-52.59 114.84,-44.37 108.08,-49.5 112.75,-52.59"/>
</g>
<!-- O -->
<g id="node18" class="node">
<title>O</title>
<path fill="#f8fafc" stroke="#64748b" stroke-width="1.2" d="M307,-368C307,-368 253,-368 253,-368 247,-368 241,-362 241,-356 241,-356 241,-336 241,-336 241,-330 247,-324 253,-324 253,-324 307,-324 307,-324 313,-324 319,-330 319,-336 319,-336 319,-356 319,-356 319,-362 313,-368 307,-368"/>
<text text-anchor="middle" x="280" y="-349.8" font-family="Noto Sans CJK SC" font-size="14.00">接收</text>
<text text-anchor="middle" x="280" y="-334.8" font-family="Noto Sans CJK SC" font-size="14.00">销售答复</text>
</g>
<!-- M&#45;&gt;O -->
<g id="edge18" class="edge">
<title>M&#45;&gt;O</title>
<path fill="none" stroke="#64748b" stroke-width="1.1" d="M281.67,-451.91C281.34,-431.2 280.83,-399.42 280.46,-376.26"/>
<polygon fill="#64748b" stroke="#64748b" stroke-width="1.1" points="283.26,-376.11 280.34,-368.16 277.66,-376.2 283.26,-376.11"/>
</g>
<!-- N&#45;&gt;R -->
<g id="edge24" class="edge">
<title>N&#45;&gt;R</title>
<path fill="none" stroke="#64748b" stroke-width="1.1" d="M142.77,-259.89C140.1,-213.94 133.76,-104.82 130.7,-52.27"/>
<polygon fill="#64748b" stroke="#64748b" stroke-width="1.1" points="133.48,-51.87 130.22,-44.04 127.89,-52.19 133.48,-51.87"/>
</g>
<!-- P -->
<g id="node19" class="node">
<title>P</title>
<polygon fill="#fff7ed" stroke="#f59e0b" stroke-width="1.2" points="279,-240 167,-211 279,-182 391,-211 279,-240"/>
<text text-anchor="middle" x="279" y="-207.3" font-family="Noto Sans CJK SC" font-size="14.00">答复是否充分</text>
</g>
<!-- O&#45;&gt;P -->
<g id="edge19" class="edge">
<title>O&#45;&gt;P</title>
<path fill="none" stroke="#64748b" stroke-width="1.1" d="M279.84,-323.93C279.69,-303.75 279.46,-272.87 279.28,-248.66"/>
<polygon fill="#64748b" stroke="#64748b" stroke-width="1.1" points="282.07,-248.38 279.21,-240.4 276.47,-248.42 282.07,-248.38"/>
</g>
<!-- P1 -->
<g id="node20" class="node">
<title>P1</title>
<path fill="#fef2f2" stroke="#ef4444" stroke-width="1.2" d="M301,-129C301,-129 205,-129 205,-129 199,-129 193,-123 193,-117 193,-117 193,-97 193,-97 193,-91 199,-85 205,-85 205,-85 301,-85 301,-85 307,-85 313,-91 313,-97 313,-97 313,-117 313,-117 313,-123 307,-129 301,-129"/>
<text text-anchor="middle" x="253" y="-110.8" font-family="Noto Sans CJK SC" font-size="14.00">继续向销售追问</text>
<text text-anchor="middle" x="253" y="-95.8" font-family="Noto Sans CJK SC" font-size="14.00">或转人工</text>
</g>
<!-- P&#45;&gt;P1 -->
<g id="edge20" class="edge">
<title>P&#45;&gt;P1</title>
<path fill="none" stroke="#64748b" stroke-width="1.1" d="M267.89,-184.59C262.85,-173.08 258,-162 258,-162 258,-162 256.89,-150.02 255.72,-137.34"/>
<polygon fill="#64748b" stroke="#64748b" stroke-width="1.1" points="258.47,-136.74 254.95,-129.03 252.9,-137.26 258.47,-136.74"/>
<text text-anchor="middle" x="264.5" y="-152.4" font-family="Noto Sans CJK SC" font-size="12.00">否</text>
</g>
<!-- Q -->
<g id="node21" class="node">
<title>Q</title>
<path fill="#f8fafc" stroke="#64748b" stroke-width="1.2" d="M451,-129C451,-129 369,-129 369,-129 363,-129 357,-123 357,-117 357,-117 357,-97 357,-97 357,-91 363,-85 369,-85 369,-85 451,-85 451,-85 457,-85 463,-91 463,-97 463,-97 463,-117 463,-117 463,-123 457,-129 451,-129"/>
<text text-anchor="middle" x="410" y="-110.8" font-family="Noto Sans CJK SC" font-size="14.00">更新任务版本</text>
<text text-anchor="middle" x="410" y="-95.8" font-family="Noto Sans CJK SC" font-size="14.00">并重新下达</text>
</g>
<!-- P&#45;&gt;Q -->
<g id="edge21" class="edge">
<title>P&#45;&gt;Q</title>
<path fill="none" stroke="#64748b" stroke-width="1.1" d="M306.14,-188.87C326.52,-173 354.54,-151.18 376.34,-134.21"/>
<polygon fill="#64748b" stroke="#64748b" stroke-width="1.1" points="378.3,-136.23 382.89,-129.11 374.86,-131.81 378.3,-136.23"/>
<text text-anchor="middle" x="363.5" y="-152.4" font-family="Noto Sans CJK SC" font-size="12.00">是</text>
</g>
<!-- P1&#45;&gt;R -->
<g id="edge25" class="edge">
<title>P1&#45;&gt;R</title>
<path fill="none" stroke="#64748b" stroke-width="1.1" d="M221.39,-84.84C204.92,-73.82 184.65,-60.25 167.29,-48.63"/>
<polygon fill="#64748b" stroke="#64748b" stroke-width="1.1" points="168.76,-46.24 160.55,-44.12 165.64,-50.9 168.76,-46.24"/>
</g>
<!-- Q&#45;&gt;I -->
<g id="edge22" class="edge">
<title>Q&#45;&gt;I</title>
<path fill="none" stroke="#64748b" stroke-width="1.1" d="M413.94,-129.13C419.5,-159.01 429,-210 429,-210 429,-701 429,-701 429,-701 429,-701 401.55,-732.21 380.32,-756.35"/>
<polygon fill="#64748b" stroke="#64748b" stroke-width="1.1" points="377.98,-754.77 374.8,-762.63 382.19,-758.47 377.98,-754.77"/>
</g>
</g>
</svg>
