<?xml version='1.0' encoding='utf-8'?>
<svg xmlns="http://www.w3.org/2000/svg" width="1000" height="2600" viewBox="0 0 1000 2600"><rect width="1000" height="2200" fill="#fafafa" /><g><rect x="30" y="10" width="940" height="30" fill="#0288d1" rx="4" /><text x="500" y="30" text-anchor="middle" font-size="14" fill="white" font-weight="bold" font-family="Arial, sans-serif">① 感知层：CRM 订单同步 (crm_sync.py)</text></g><g class=""><rect x="150" y="50" width="280" height="50" rx="6" fill="#e1f5fe" stroke="#0288d1" stroke-width="1.5" /><text x="290.0" y="72" text-anchor="middle" font-size="12" fill="#333" font-family="Arial, sans-serif">定时轮询/手动触发</text><text x="290.0" y="90" text-anchor="middle" font-size="12" fill="#333" font-family="Arial, sans-serif">纷享销客 CDP 接口</text></g><g class=""><rect x="550" y="50" width="280" height="50" rx="6" fill="#e1f5fe" stroke="#0288d1" stroke-width="1.5" /><text x="690.0" y="72" text-anchor="middle" font-size="12" fill="#333" font-family="Arial, sans-serif">获取销售订单列表</text><text x="690.0" y="90" text-anchor="middle" font-size="12" fill="#333" font-family="Arial, sans-serif">详情 + 附件 + 快照</text></g><g><line x1="430" y1="75" x2="550" y2="75" stroke="#666" stroke-width="1.5" stroke-dasharray="none" /><polygon points="550,75 538,71 546,79" fill="#666" stroke="#666" stroke-width="1" /></g><g class=""><rect x="150" y="120" width="280" height="50" rx="6" fill="#e1f5fe" stroke="#0288d1" stroke-width="1.5" /><text x="290.0" y="142" text-anchor="middle" font-size="12" fill="#333" font-family="Arial, sans-serif">CRM 订单入库 CrmSalesOrder</text><text x="290.0" y="160" text-anchor="middle" font-size="12" fill="#333" font-family="Arial, sans-serif">幂等去重 (payload_hash)</text></g><g><line x1="430" y1="75" x2="430" y2="145" stroke="#666" stroke-width="1.5" stroke-dasharray="none" /><polygon points="430,145 426,133 434,141" fill="#666" stroke="#666" stroke-width="1" /></g><g><polygon points="290.0,190 430,215.0 290.0,240 150,215.0" fill="#fff3e0" stroke="#f57c00" stroke-width="1.5" /><text x="290.0" y="210.0" text-anchor="middle" font-size="11" fill="#333" font-family="Arial, sans-serif">一期范围检查?</text></g><g><line x1="430" y1="145" x2="430" y2="180" stroke="#666" stroke-width="1.5" stroke-dasharray="none" /><polygon points="430,180 426,168 434,176" fill="#666" stroke="#666" stroke-width="1" /></g><g><line x1="430" y1="215" x2="430" y2="250" stroke="#666" stroke-width="1.5" stroke-dasharray="none" /><polygon points="430,250 426,238 434,246" fill="#666" stroke="#666" stroke-width="1" /><text x="430.0" y="226.5" text-anchor="middle" font-size="10" fill="#666" font-family="Arial, sans-serif" font-style="italic">InScope</text></g><g class=""><rect x="150" y="270" width="280" height="40" rx="6" fill="#fff8e1" stroke="#f9a825" stroke-width="1.5" /><text x="290.0" y="292" text-anchor="middle" font-size="12" fill="#333" font-family="Arial, sans-serif">入队处理: enqueue_crm_order_parsed_event</text></g><g><line x1="290" y1="290" x2="290" y2="330" stroke="#666" stroke-width="1.5" stroke-dasharray="none" /><polygon points="290,330 286,318 294,326" fill="#666" stroke="#666" stroke-width="1" /></g><g><rect x="30" y="340" width="940" height="30" fill="#388e3c" rx="4" /><text x="500" y="360" text-anchor="middle" font-size="14" fill="white" font-weight="bold" font-family="Arial, sans-serif">② 认知层：中台建单与预审 (order_middle_platform.py)</text></g><g class=""><rect x="150" y="380" width="280" height="50" rx="6" fill="#e8f5e9" stroke="#388e3c" stroke-width="1.5" /><text x="290.0" y="402" text-anchor="middle" font-size="12" fill="#333" font-family="Arial, sans-serif">process_crm_order_parsed_event</text><text x="290.0" y="420" text-anchor="middle" font-size="12" fill="#333" font-family="Arial, sans-serif">变更检测 + 幂等判断</text></g><g><line x1="290" y1="360" x2="290" y2="380" stroke="#666" stroke-width="1.5" stroke-dasharray="none" /><polygon points="290,380 286,368 294,376" fill="#666" stroke="#666" stroke-width="1" /></g><g><polygon points="290.0,450 430,475.0 290.0,500 150,475.0" fill="#fff3e0" stroke="#f57c00" stroke-width="1.5" /><text x="290.0" y="470.0" text-anchor="middle" font-size="11" fill="#333" font-family="Arial, sans-serif">订单变更检测?</text><text x="290.0" y="484.0" text-anchor="middle" font-size="11" fill="#333" font-family="Arial, sans-serif">payload_hash 对比</text></g><g><line x1="290" y1="430" x2="290" y2="450" stroke="#666" stroke-width="1.5" stroke-dasharray="none" /><polygon points="290,450 286,438 294,446" fill="#666" stroke="#666" stroke-width="1" /></g><g class=""><rect x="550" y="450" width="300" height="60" rx="6" fill="#fce4ec" stroke="#d32f2f" stroke-width="1.5" /><text x="700.0" y="472" text-anchor="middle" font-size="12" fill="#333" font-family="Arial, sans-serif">变更处理链条</text><text x="700.0" y="490" text-anchor="middle" font-size="12" fill="#333" font-family="Arial, sans-serif">handle_crm_snapshot_changed</text><text x="700.0" y="508" text-anchor="middle" font-size="12" fill="#333" font-family="Arial, sans-serif">→ 标记 CHANGED → 新建快照</text></g><g><line x1="430" y1="475" x2="550" y2="475" stroke="#d32f2f" stroke-width="1.5" /><text x="490" y="468" text-anchor="middle" font-size="10" fill="#d32f2f" font-family="Arial, sans-serif">有变更</text><line x1="700" y1="510" x2="700" y2="530" stroke="#d32f2f" stroke-width="1.5" stroke-dasharray="5,4" /></g><g class=""><rect x="150" y="520" width="280" height="50" rx="6" fill="#e8f5e9" stroke="#388e3c" stroke-width="1.5" /><text x="290.0" y="542" text-anchor="middle" font-size="12" fill="#333" font-family="Arial, sans-serif">附件字段提取</text><text x="290.0" y="560" text-anchor="middle" font-size="12" fill="#333" font-family="Arial, sans-serif">收货人/地址/日期</text></g><g><line x1="290" y1="500" x2="290" y2="520" stroke="#666" stroke-width="1.5" stroke-dasharray="none" /><polygon points="290,520 286,508 294,516" fill="#666" stroke="#666" stroke-width="1" /></g><g class=""><rect x="150" y="590" width="280" height="50" rx="6" fill="#e8f5e9" stroke="#388e3c" stroke-width="1.5" /><text x="290.0" y="612" text-anchor="middle" font-size="12" fill="#333" font-family="Arial, sans-serif">upsert_middle_platform_order</text><text x="290.0" y="630" text-anchor="middle" font-size="12" fill="#333" font-family="Arial, sans-serif">生成 MP-中台单号</text><text x="290.0" y="648" text-anchor="middle" font-size="12" fill="#333" font-family="Arial, sans-serif">同步明细 (OrderItems)</text></g><g><line x1="290" y1="570" x2="290" y2="590" stroke="#666" stroke-width="1.5" stroke-dasharray="none" /><polygon points="290,590 286,578 294,586" fill="#666" stroke="#666" stroke-width="1" /></g><g class=""><rect x="150" y="660" width="280" height="40" rx="6" fill="#e8f5e9" stroke="#388e3c" stroke-width="1.5" /><text x="290.0" y="682" text-anchor="middle" font-size="12" fill="#333" font-family="Arial, sans-serif">状态: CRM_APPROVED → IMPORTED</text></g><g><line x1="290" y1="640" x2="290" y2="660" stroke="#666" stroke-width="1.5" stroke-dasharray="none" /><polygon points="290,660 286,648 294,656" fill="#666" stroke="#666" stroke-width="1" /></g><g><rect x="30" y="720" width="940" height="30" fill="#f57c00" rx="4" /><text x="500" y="740" text-anchor="middle" font-size="14" fill="white" font-weight="bold" font-family="Arial, sans-serif">▼ 11条预审规则链 (责任链模式 + 熔断) ▼</text></g><g class=""><rect x="80" y="760" width="75" height="45" rx="6" fill="#fff3e0" stroke="#f57c00" stroke-width="1.5" /><text x="117.5" y="782" text-anchor="middle" font-size="12" fill="#333" font-family="Arial, sans-serif">① RequiredHeadFieldsRule</text><text x="117.5" y="800" text-anchor="middle" font-size="12" fill="#333" font-family="Arial, sans-serif">必填字段校验</text></g><g class=""><rect x="160" y="760" width="75" height="45" rx="6" fill="#fff3e0" stroke="#f57c00" stroke-width="1.5" /><text x="197.5" y="782" text-anchor="middle" font-size="12" fill="#333" font-family="Arial, sans-serif">② PhaseOneCompletenessRule</text><text x="197.5" y="800" text-anchor="middle" font-size="12" fill="#333" font-family="Arial, sans-serif">一期完整性</text></g><line x1="158" y1="782" x2="163" y2="782" stroke="#f57c00" stroke-width="1" stroke-dasharray="3,3" /><g class=""><rect x="240" y="760" width="75" height="45" rx="6" fill="#fff3e0" stroke="#f57c00" stroke-width="1.5" /><text x="277.5" y="782" text-anchor="middle" font-size="12" fill="#333" font-family="Arial, sans-serif">③ CustomerMappingRule</text><text x="277.5" y="800" text-anchor="middle" font-size="12" fill="#333" font-family="Arial, sans-serif">客户主数据映射</text></g><line x1="238" y1="782" x2="243" y2="782" stroke="#f57c00" stroke-width="1" stroke-dasharray="3,3" /><g class=""><rect x="320" y="760" width="75" height="45" rx="6" fill="#fff3e0" stroke="#f57c00" stroke-width="1.5" /><text x="357.5" y="782" text-anchor="middle" font-size="12" fill="#333" font-family="Arial, sans-serif">④ PositiveAmountRule</text><text x="357.5" y="800" text-anchor="middle" font-size="12" fill="#333" font-family="Arial, sans-serif">金额正数</text></g><line x1="318" y1="782" x2="323" y2="782" stroke="#f57c00" stroke-width="1" stroke-dasharray="3,3" /><g class=""><rect x="400" y="760" width="75" height="45" rx="6" fill="#fff3e0" stroke="#f57c00" stroke-width="1.5" /><text x="437.5" y="782" text-anchor="middle" font-size="12" fill="#333" font-family="Arial, sans-serif">⑤ AmountConsistencyRule</text><text x="437.5" y="800" text-anchor="middle" font-size="12" fill="#333" font-family="Arial, sans-serif">金额一致性</text></g><line x1="398" y1="782" x2="403" y2="782" stroke="#f57c00" stroke-width="1" stroke-dasharray="3,3" /><g class=""><rect x="480" y="760" width="75" height="45" rx="6" fill="#fff3e0" stroke="#f57c00" stroke-width="1.5" /><text x="517.5" y="782" text-anchor="middle" font-size="12" fill="#333" font-family="Arial, sans-serif">⑥ HasOrderItemsRule</text><text x="517.5" y="800" text-anchor="middle" font-size="12" fill="#333" font-family="Arial, sans-serif">明细存在性</text></g><line x1="478" y1="782" x2="483" y2="782" stroke="#f57c00" stroke-width="1" stroke-dasharray="3,3" /><g class=""><rect x="560" y="760" width="75" height="45" rx="6" fill="#fff3e0" stroke="#f57c00" stroke-width="1.5" /><text x="597.5" y="782" text-anchor="middle" font-size="12" fill="#333" font-family="Arial, sans-serif">⑦ KnownSkuRule</text><text x="597.5" y="800" text-anchor="middle" font-size="12" fill="#333" font-family="Arial, sans-serif">已知SKU匹配</text></g><line x1="558" y1="782" x2="563" y2="782" stroke="#f57c00" stroke-width="1" stroke-dasharray="3,3" /><g class=""><rect x="640" y="760" width="75" height="45" rx="6" fill="#fff3e0" stroke="#f57c00" stroke-width="1.5" /><text x="677.5" y="782" text-anchor="middle" font-size="12" fill="#333" font-family="Arial, sans-serif">⑧ SkuBomMatchRule</text><text x="677.5" y="800" text-anchor="middle" font-size="12" fill="#333" font-family="Arial, sans-serif">BOM匹配</text></g><line x1="638" y1="782" x2="643" y2="782" stroke="#f57c00" stroke-width="1" stroke-dasharray="3,3" /><g class=""><rect x="720" y="760" width="75" height="45" rx="6" fill="#fff3e0" stroke="#f57c00" stroke-width="1.5" /><text x="757.5" y="782" text-anchor="middle" font-size="12" fill="#333" font-family="Arial, sans-serif">⑨ ContractAmountConsistencyRule</text><text x="757.5" y="800" text-anchor="middle" font-size="12" fill="#333" font-family="Arial, sans-serif">合同金额一致</text></g><line x1="718" y1="782" x2="723" y2="782" stroke="#f57c00" stroke-width="1" stroke-dasharray="3,3" /><g class=""><rect x="800" y="760" width="75" height="45" rx="6" fill="#fff3e0" stroke="#f57c00" stroke-width="1.5" /><text x="837.5" y="782" text-anchor="middle" font-size="12" fill="#333" font-family="Arial, sans-serif">⑩ AttachmentProductConsistencyRule</text><text x="837.5" y="800" text-anchor="middle" font-size="12" fill="#333" font-family="Arial, sans-serif">附件一致性</text></g><line x1="798" y1="782" x2="803" y2="782" stroke="#f57c00" stroke-width="1" stroke-dasharray="3,3" /><g class=""><rect x="880" y="760" width="75" height="45" rx="6" fill="#fff3e0" stroke="#f57c00" stroke-width="1.5" /><text x="917.5" y="782" text-anchor="middle" font-size="12" fill="#333" font-family="Arial, sans-serif">⑪ LocalInventoryAvailableRule</text><text x="917.5" y="800" text-anchor="middle" font-size="12" fill="#333" font-family="Arial, sans-serif">本地库存可用</text></g><line x1="878" y1="782" x2="883" y2="782" stroke="#f57c00" stroke-width="1" stroke-dasharray="3,3" /><g><polygon points="450.0,825 570,850.0 450.0,875 330,850.0" fill="#fff3e0" stroke="#f57c00" stroke-width="1.5" /><text x="450.0" y="845.0" text-anchor="middle" font-size="11" fill="#333" font-family="Arial, sans-serif">责任链结果?</text></g><g class=""><rect x="560" y="855" width="280" height="45" rx="6" fill="#fce4ec" stroke="#d32f2f" stroke-width="1.5" /><text x="700.0" y="877" text-anchor="middle" font-size="12" fill="#333" font-family="Arial, sans-serif">❌ VALIDATION_BLOCKED</text><text x="700.0" y="895" text-anchor="middle" font-size="12" fill="#333" font-family="Arial, sans-serif">→ 创建 ExceptionCase</text></g><line x1="570" y1="850" x2="560" y2="855" stroke="#d32f2f" stroke-width="1.5" /><text x="565" y="845" text-anchor="end" font-size="10" fill="#d32f2f" font-family="Arial, sans-serif">阻断/CRITICAL</text><g class=""><rect x="560" y="965" width="280" height="40" rx="6" fill="#fce4ec" stroke="#d32f2f" stroke-width="1.5" /><text x="700.0" y="987" text-anchor="middle" font-size="12" fill="#333" font-family="Arial, sans-serif">AI 诊断入队 + 邮件通知</text></g><line x1="700" y1="960" x2="700" y2="970" stroke="#d32f2f" stroke-width="1" /><g class=""><rect x="560" y="1020" width="280" height="40" rx="6" fill="#fce4ec" stroke="#d32f2f" stroke-width="1.5" /><text x="700.0" y="1042" text-anchor="middle" font-size="12" fill="#333" font-family="Arial, sans-serif">商务/销售补正 → 重新预审</text></g><line x1="560" y1="1040" x2="450" y2="797" stroke="#d32f2f" stroke-width="1" stroke-dasharray="5,4" /><g class=""><rect x="100" y="885" width="240" height="40" rx="6" fill="#e8eaf6" stroke="#3949ab" stroke-width="1.5" /><text x="220.0" y="907" text-anchor="middle" font-size="12" fill="#333" font-family="Arial, sans-serif">✅ VALIDATED / RULES_PASSED</text></g><text x="320" y="845" text-anchor="start" font-size="10" fill="#388e3c" font-family="Arial, sans-serif">全部通过</text><line x1="330" y1="875" x2="220" y2="880" stroke="#388e3c" stroke-width="1.5" /><g><rect x="30" y="945" width="940" height="30" fill="#00796b" rx="4" /><text x="500" y="965" text-anchor="middle" font-size="14" fill="white" font-weight="bold" font-family="Arial, sans-serif">②⑤ 金蝶 ERP 制单与提交（N-007 新增）</text></g><g class=""><rect x="150" y="985" width="280" height="50" rx="6" fill="#e0f2f1" stroke="#00796b" stroke-width="1.5" /><text x="290.0" y="1007" text-anchor="middle" font-size="12" fill="#333" font-family="Arial, sans-serif">ERP 制单 (Save)</text><text x="290.0" y="1025" text-anchor="middle" font-size="12" fill="#333" font-family="Arial, sans-serif">构建销售订单 JSON</text><text x="290.0" y="1043" text-anchor="middle" font-size="12" fill="#333" font-family="Arial, sans-serif">含客户/物料/部门/金额</text></g><line x1="220" y1="925" x2="220" y2="990" stroke="#388e3c" stroke-width="1.5" /><g class=""><rect x="150" y="1055" width="280" height="40" rx="6" fill="#e0f2f1" stroke="#00796b" stroke-width="1.5" /><text x="290.0" y="1077" text-anchor="middle" font-size="12" fill="#333" font-family="Arial, sans-serif">ERP 提交 (Submit)</text></g><line x1="290" y1="1035" x2="290" y2="1055" stroke="#00796b" stroke-width="1.5" /><g class=""><rect x="150" y="1115" width="280" height="40" rx="6" fill="#e0f2f1" stroke="#00796b" stroke-width="1.5" /><text x="290.0" y="1137" text-anchor="middle" font-size="12" fill="#333" font-family="Arial, sans-serif">ERP 审核 (Audit)</text></g><line x1="290" y1="1095" x2="290" y2="1115" stroke="#00796b" stroke-width="1.5" /><g><polygon points="290.0,1175 430,1200.0 290.0,1225 150,1200.0" fill="#fff3e0" stroke="#f57c00" stroke-width="1.5" /><text x="290.0" y="1195.0" text-anchor="middle" font-size="11" fill="#333" font-family="Arial, sans-serif">ERP 制单结果?</text></g><line x1="290" y1="1160" x2="290" y2="1175" stroke="#00796b" stroke-width="1.5" /><g class=""><rect x="560" y="1175" width="280" height="40" rx="6" fill="#fce4ec" stroke="#d32f2f" stroke-width="1.5" /><text x="700.0" y="1197" text-anchor="middle" font-size="12" fill="#333" font-family="Arial, sans-serif">❌ 制单异常 → ExceptionCase</text></g><line x1="430" y1="1200" x2="560" y2="1200" stroke="#d32f2f" stroke-width="1.5" /><text x="490" y="1195" text-anchor="middle" font-size="10" fill="#d32f2f" font-family="Arial, sans-serif">制单失败</text><text x="90" y="1230" text-anchor="start" font-size="10" fill="#00796b" font-family="Arial, sans-serif" font-weight="bold">制单成功 → 继续发货</text><line x1="290" y1="1225" x2="290" y2="1305" stroke="#00796b" stroke-width="1.5" /><g><rect x="30" y="1250" width="940" height="30" fill="#7b1fa2" rx="4" /><text x="500" y="1270" text-anchor="middle" font-size="14" fill="white" font-weight="bold" font-family="Arial, sans-serif">③ 执行层：发货通知与 OMS 下推</text></g><g class=""><rect x="150" y="1290" width="280" height="45" rx="6" fill="#f3e5f5" stroke="#7b1fa2" stroke-width="1.5" /><text x="290.0" y="1312" text-anchor="middle" font-size="12" fill="#333" font-family="Arial, sans-serif">create_delivery_notice</text><text x="290.0" y="1330" text-anchor="middle" font-size="12" fill="#333" font-family="Arial, sans-serif">生成发货通知单</text></g><line x1="220" y1="925" x2="220" y2="1295" stroke="#388e3c" stroke-width="1.5" /><g><polygon points="290.0,1355 430,1380.0 290.0,1405 150,1380.0" fill="#fff3e0" stroke="#f57c00" stroke-width="1.5" /><text x="290.0" y="1375.0" text-anchor="middle" font-size="11" fill="#333" font-family="Arial, sans-serif">平台履约订单?</text></g><line x1="290" y1="1340" x2="290" y2="1355" stroke="#7b1fa2" stroke-width="1.5" /><g class=""><rect x="550" y="1355" width="280" height="40" rx="6" fill="#e8eaf6" stroke="#3949ab" stroke-width="1.5" /><text x="690.0" y="1377" text-anchor="middle" font-size="12" fill="#333" font-family="Arial, sans-serif">直接归档</text></g><line x1="430" y1="1380" x2="550" y2="1380" stroke="#7b1fa2" stroke-width="1.5" /><text x="490" y="1375" text-anchor="middle" font-size="10" fill="#7b1fa2" font-family="Arial, sans-serif">是</text><g class=""><rect x="150" y="1425" width="280" height="40" rx="6" fill="#f3e5f5" stroke="#7b1fa2" stroke-width="1.5" /><text x="290.0" y="1447" text-anchor="middle" font-size="12" fill="#333" font-family="Arial, sans-serif">状态: DELIVERY_NOTICE_READY</text></g><line x1="290" y1="1405" x2="290" y2="1425" stroke="#7b1fa2" stroke-width="1.5" /><g><polygon points="290.0,1485 430,1510.0 290.0,1535 150,1510.0" fill="#fff3e0" stroke="#f57c00" stroke-width="1.5" /><text x="290.0" y="1505.0" text-anchor="middle" font-size="11" fill="#333" font-family="Arial, sans-serif">自动确认?</text></g><line x1="290" y1="1465" x2="290" y2="1485" stroke="#7b1fa2" stroke-width="1.5" /><g class=""><rect x="150" y="1555" width="280" height="40" rx="6" fill="#f3e5f5" stroke="#7b1fa2" stroke-width="1.5" /><text x="290.0" y="1577" text-anchor="middle" font-size="12" fill="#333" font-family="Arial, sans-serif">confirm_delivery_notice</text><text x="290.0" y="1595" text-anchor="middle" font-size="12" fill="#333" font-family="Arial, sans-serif">→ OMS_PENDING</text></g><line x1="290" y1="1535" x2="290" y2="1555" stroke="#7b1fa2" stroke-width="1.5" /><g class=""><rect x="150" y="1615" width="280" height="40" rx="6" fill="#f3e5f5" stroke="#7b1fa2" stroke-width="1.5" /><text x="290.0" y="1637" text-anchor="middle" font-size="12" fill="#333" font-family="Arial, sans-serif">enqueue_oms_push → 入队</text></g><line x1="290" y1="1595" x2="290" y2="1615" stroke="#7b1fa2" stroke-width="1.5" /><g class=""><rect x="150" y="1675" width="280" height="45" rx="6" fill="#f3e5f5" stroke="#7b1fa2" stroke-width="1.5" /><text x="290.0" y="1697" text-anchor="middle" font-size="12" fill="#333" font-family="Arial, sans-serif">调用吉客云 API</text><text x="290.0" y="1715" text-anchor="middle" font-size="12" fill="#333" font-family="Arial, sans-serif">wms.order.create</text><text x="290.0" y="1733" text-anchor="middle" font-size="12" fill="#333" font-family="Arial, sans-serif">指数退避 60s/180s/540s</text></g><line x1="290" y1="1655" x2="290" y2="1675" stroke="#7b1fa2" stroke-width="1.5" /><g><polygon points="290.0,1740 430,1765.0 290.0,1790 150,1765.0" fill="#fff3e0" stroke="#f57c00" stroke-width="1.5" /><text x="290.0" y="1760.0" text-anchor="middle" font-size="11" fill="#333" font-family="Arial, sans-serif">下推结果?</text></g><line x1="290" y1="1725" x2="290" y2="1740" stroke="#7b1fa2" stroke-width="1.5" /><g class=""><rect x="550" y="1740" width="280" height="40" rx="6" fill="#e8eaf6" stroke="#3949ab" stroke-width="1.5" /><text x="690.0" y="1762" text-anchor="middle" font-size="12" fill="#333" font-family="Arial, sans-serif">✅ OMS_ACCEPTED</text></g><line x1="430" y1="1765" x2="550" y2="1765" stroke="#7b1fa2" stroke-width="1.5" /><text x="490" y="1760" text-anchor="middle" font-size="10" fill="#388e3c" font-family="Arial, sans-serif">成功</text><g class=""><rect x="100" y="1740" width="130" height="45" rx="6" fill="#fce4ec" stroke="#d32f2f" stroke-width="1.5" /><text x="165.0" y="1762" text-anchor="middle" font-size="12" fill="#333" font-family="Arial, sans-serif">❌ OMS_BLOCKED</text><text x="165.0" y="1780" text-anchor="middle" font-size="12" fill="#333" font-family="Arial, sans-serif">死信 + AI诊断</text></g><line x1="150" y1="1765" x2="100" y2="1765" stroke="#d32f2f" stroke-width="1.5" /><text x="130" y="1760" text-anchor="end" font-size="10" fill="#d32f2f" font-family="Arial, sans-serif">重试耗尽</text><g><rect x="30" y="1810" width="940" height="30" fill="#3949ab" rx="4" /><text x="500" y="1830" text-anchor="middle" font-size="14" fill="white" font-weight="bold" font-family="Arial, sans-serif">④ 履约追踪</text></g><g class=""><rect x="150" y="1850" width="280" height="40" rx="6" fill="#e8eaf6" stroke="#3949ab" stroke-width="1.5" /><text x="290.0" y="1872" text-anchor="middle" font-size="12" fill="#333" font-family="Arial, sans-serif">poll_oms_status_updates</text><text x="290.0" y="1890" text-anchor="middle" font-size="12" fill="#333" font-family="Arial, sans-serif">轮询 OMS 执行状态</text></g><line x1="690" y1="1760" x2="690" y2="1850" stroke="#3949ab" stroke-width="1.5" /><g class=""><rect x="150" y="1910" width="280" height="40" rx="6" fill="#e8eaf6" stroke="#3949ab" stroke-width="1.5" /><text x="290.0" y="1932" text-anchor="middle" font-size="12" fill="#333" font-family="Arial, sans-serif">PICKING (拣货)</text></g><g class=""><rect x="150" y="1970" width="280" height="40" rx="6" fill="#e8eaf6" stroke="#3949ab" stroke-width="1.5" /><text x="290.0" y="1992" text-anchor="middle" font-size="12" fill="#333" font-family="Arial, sans-serif">SHIPPED (发货)</text></g><g><polygon points="290.0,2030 430,2055.0 290.0,2080 150,2055.0" fill="#fff3e0" stroke="#f57c00" stroke-width="1.5" /><text x="290.0" y="2050.0" text-anchor="middle" font-size="11" fill="#333" font-family="Arial, sans-serif">平台回传?</text></g><g class=""><rect x="550" y="2030" width="280" height="40" rx="6" fill="#e8eaf6" stroke="#3949ab" stroke-width="1.5" /><text x="690.0" y="2052" text-anchor="middle" font-size="12" fill="#333" font-family="Arial, sans-serif">回传平台履约</text></g><g class=""><rect x="150" y="2100" width="280" height="40" rx="6" fill="#e8eaf6" stroke="#3949ab" stroke-width="1.5" /><text x="290.0" y="2122" text-anchor="middle" font-size="12" fill="#333" font-family="Arial, sans-serif">FULFILLMENT_ARCHIVED</text></g><g><rect x="30" y="2165" width="940" height="30" fill="#9e9e9e" rx="4" /><text x="500" y="2185" text-anchor="middle" font-size="14" fill="white" font-weight="bold" font-family="Arial, sans-serif">⑤ 归档与下一期</text></g><g class=""><rect x="150" y="2205" width="280" height="40" rx="6" fill="#fbe9e7" stroke="#d84315" stroke-width="1.5" /><text x="290.0" y="2227" text-anchor="middle" font-size="12" fill="#333" font-family="Arial, sans-serif">下一期: 物流轨迹/签收</text></g><g class=""><rect x="150" y="2265" width="280" height="40" rx="6" fill="#e0f2f1" stroke="#00796b" stroke-width="1.5" /><text x="290.0" y="2287" text-anchor="middle" font-size="12" fill="#333" font-family="Arial, sans-serif">下一期: 财务核验 (金蝶ERP)</text></g><g class=""><rect x="150" y="2325" width="280" height="40" rx="6" fill="#e8eaf6" stroke="#3949ab" stroke-width="1.5" /><text x="290.0" y="2347" text-anchor="middle" font-size="12" fill="#333" font-family="Arial, sans-serif">下一期: 订单 CLOSED</text></g><text x="500" y="2415" text-anchor="middle" font-size="11" fill="#888" font-family="Arial, sans-serif">🟦 CRM/外部系统  🟩 中台处理  🟧 规则引擎  🟥 异常/阻断  🟪 OMS/履约  🟩🟦 归档  🟫 金蝶ERP  🟧 新增/待完善</text><text x="500" y="2435" text-anchor="middle" font-size="11" fill="#888" font-family="Arial, sans-serif">✅ 金蝶自动制单 (N-007) 已测试通过：Save → Submit → Audit → (UnAudit → Cancel → Delete)</text></svg>